<?xml version="1.0" encoding="UTF-8"?>
<svg xmlns="http://www.w3.org/2000/svg" version="1.1" viewBox="0 0 200 54">
  <defs>
    <style>
      .cls-1 {
        fill: #003e70;
        fill-rule: evenodd;
      }
    </style>
  </defs>
  <!-- Generator: Adobe Illustrator 28.7.1, SVG Export Plug-In . SVG Version: 1.2.0 Build 142)  -->
  <g>
    <g id="Capa_1">
      <g>
        <path class="cls-1" d="M42.1,1c6.3,3.2,10.7,9.8,10.7,17.4s-8.7,19.4-19.4,19.4S14,29.1,14,18.4,18.4,4.2,24.8,1c.9-.4,1.7,0,1.7.9v11.2c0,.6.3.9.9.9h12c.6,0,.9-.3.9-.9V1.7c0-1,1.2-1.1,1.8-.7h0ZM39.3,1.7v11c0,.3-.1.5-.4.5h-11.2c-.3,0-.4-.1-.4-.5V1.9c0-1.2-.6-1.8-2.1-1.9H8.5C1.9.5-2.1,8.4,1.2,14.8l24.8,36c3,4.4,11.2,4.4,14.6,0l25-36c3.3-5.6-.8-14.7-7.5-14.7h-16.8c-1.2,0-1.9.5-2,1.7h0Z"/>
        <path class="cls-1" d="M200,21.2v4.8c-2.4,0-5,1.9-5.1,4.7h0c0,2.7,1.9,4.6,5.1,4.8v6.6c-6.8,0-11.9-5.3-11.8-11.4,0-6.5,5.2-11.6,11.8-11.6v1.1M186.5,42.1h-9.5c-6.4,0-11.3-4.9-11.4-11.4,0-6.7,5.2-11.5,11.6-11.7,5.3,0,8.6,2.6,10.6,6.5l-7.4,9.8h6.1v6.8ZM173.6,33.1l5.4-6.9c-2-.8-4.1,0-5.3,1.5-1.3,1.6-1.4,3.7-.1,5.3h.1ZM140.5,20.4,144,42v-12.6c0-1.8-1.5-3.3-3.3-3.3h-.3c-1.8,0-3.3,1.5-3.3,3.3v12.6h-6.8s0-12.8,0-12.8c0-5.6,4.8-10,10.2-10,3.3,0,4.9,1.1,6.9,2.7,1.9-1.6,4-2.6,6.9-2.7,6,0,9.9,4.8,9.9,10.3v12.5h-6.7v-12.6c0-1.8-1.5-3.3-3.3-3.3h-.3c-1.8,0-3.2,1.5-3.2,3.3v12.6h-6.7ZM111.1,35c-.9.8-2.1,1.2-3.4,1.2-2.9,0-5.2-2.3-5.2-5.2s2.3-5.2,5.2-5.2h0c2.9,0,5.2,2.3,5.2,5.2v10.9h6.6v-10.9c0-7.1-4.9-11.8-12-11.7-6.2,0-11.8,5.2-11.8,11.8,0,6.1,5.8,11.6,11.8,11.6,1.3,0,2.4-.2,3.6-.5v-7.3ZM121.5,10.5v31.5h7V10.5h-7ZM90.5,20l-4.2,8.7-4.2-8.7h-8l12.2,23.4,12.2-23.4h-7.9Z"/>
      </g>
    </g>
  </g>
</svg>